<svg fill="none" viewBox="0 0 512 512" xmlns="http://www.w3.org/2000/svg"><path fill="#000" d="M0 0h512v512H0z"/><g transform="matrix(.75 0 0 .75 64 64)"><circle cx="128" cy="128" r="32" fill="#4F46E5"/><circle cx="128" cy="256" r="32" fill="#4F46E5"/><circle cx="128" cy="384" r="32" fill="#4F46E5"/><circle cx="256" cy="192" r="32" fill="#4F46E5"/><circle cx="256" cy="320" r="32" fill="#4F46E5"/><circle cx="384" cy="256" r="32" fill="#4F46E5"/><path stroke="#6366F1" stroke-width="4" d="m160 128 64 64m-64-64 64 192m-64-64 64-64m-64 64 64 64m-64 64 64-192m-64 192 64-64m64-128 64 64m-64 64 64-64"/></g></svg>